<?xml version="1.0" standalone="no"?>
<!DOCTYPE svg PUBLIC "-//W3C//DTD SVG 20010904//EN"
 "http://www.w3.org/TR/2001/REC-SVG-20010904/DTD/svg10.dtd">
<svg version="1.0" xmlns="http://www.w3.org/2000/svg"
 width="225.000000pt" height="225.000000pt" viewBox="0 0 225.000000 225.000000"
 preserveAspectRatio="xMidYMid meet">
<metadata>
Created by potrace 1.11, written by Peter Selinger 2001-2013
</metadata>
<g transform="translate(0.000000,225.000000) scale(0.100000,-0.100000)"
fill="#000000" stroke="none">
<path d="M710 2031 c0 -4 20 -24 45 -44 25 -21 45 -47 45 -57 0 -11 4 -20 9
-20 4 0 14 -20 21 -45 11 -38 10 -49 -4 -79 -9 -19 -16 -39 -16 -45 0 -6 -7
-11 -15 -11 -8 0 -15 3 -15 8 0 4 -10 23 -21 42 l-22 35 -9 -25 c-6 -16 -5
-26 1 -28 27 -9 -9 -60 -52 -75 -10 -4 -16 -11 -13 -16 3 -5 -1 -14 -9 -21 -7
-6 -12 -17 -9 -24 3 -8 -1 -16 -9 -19 -8 -3 -17 -25 -21 -48 -4 -24 -10 -48
-15 -54 -4 -5 -11 -18 -14 -27 -4 -13 -2 -16 11 -12 12 4 10 0 -6 -15 -15 -13
-23 -33 -25 -58 -1 -21 -5 -43 -9 -48 -4 -6 -5 -23 -4 -38 2 -14 -1 -24 -6
-21 -5 3 -6 -5 -3 -19 4 -14 2 -35 -5 -46 -6 -13 -7 -21 -1 -21 5 0 12 9 16
19 3 10 19 25 36 32 36 14 52 0 46 -38 -2 -13 -1 -23 4 -23 17 0 19 -40 3 -65
-13 -20 -14 -25 -2 -25 8 0 19 5 26 12 25 25 11 -9 -17 -39 -27 -30 -29 -30
-42 -12 -7 10 -17 19 -21 19 -16 0 -40 -64 -40 -107 0 -40 -5 -51 -51 -103
-29 -31 -61 -62 -72 -67 -11 -6 -58 -46 -105 -89 -47 -44 -94 -84 -105 -90
-11 -6 -23 -26 -28 -45 -7 -34 -93 -499 -102 -551 l-4 -28 484 0 485 0 -21 52
c-32 81 -135 268 -155 280 -48 30 -189 267 -218 368 -7 21 -5 21 12 -6 11 -18
26 -35 33 -39 15 -10 7 4 -37 66 -18 25 -38 58 -43 73 -10 25 -10 26 12 14 12
-7 58 -13 102 -14 72 -1 120 -13 193 -50 1 -1 -2 -14 -8 -30 -14 -34 -5 -124
14 -150 12 -16 18 -16 62 -4 27 7 64 21 82 31 32 18 33 18 121 -11 124 -42
127 -41 147 26 9 31 14 72 11 90 -5 30 -2 36 23 49 16 8 35 12 43 9 10 -3 18
2 21 14 6 17 16 20 69 20 86 0 98 2 92 13 -4 5 -1 9 5 9 6 0 8 5 5 10 -3 5 1
10 10 10 11 0 15 6 11 18 -7 22 8 47 23 38 20 -13 12 -70 -19 -134 -17 -35
-30 -74 -30 -85 0 -29 -49 -132 -92 -193 -42 -60 -170 -320 -193 -391 -9 -29
-19 -53 -21 -53 -3 0 -2 10 1 23 5 15 4 19 -3 12 -6 -5 -14 -23 -17 -40 -5
-23 -4 -26 4 -15 7 10 11 11 11 3 0 -10 90 -13 419 -13 l418 0 -3 22 c-42 278
-53 369 -58 447 l-6 94 -53 56 c-29 31 -63 71 -76 89 -13 18 -77 73 -142 123
-65 49 -119 92 -119 95 0 4 8 4 18 2 14 -4 17 2 16 31 -1 53 -13 98 -30 112
-11 9 -14 8 -14 -4 0 -11 -5 -14 -17 -10 -12 5 -14 3 -8 -8 9 -15 -18 12 -50
51 -14 18 -15 21 -3 11 26 -20 41 -4 22 25 -15 23 -15 26 0 43 9 9 13 20 10
24 -4 3 -4 18 0 32 5 18 13 25 31 25 19 0 23 4 18 17 -4 11 -3 14 6 9 7 -5 10
-14 7 -21 -2 -7 3 -23 12 -36 l17 -24 6 35 c3 20 -1 47 -8 63 -10 20 -10 27
-2 27 8 0 6 7 -4 18 -10 10 -17 31 -17 46 0 17 -12 42 -30 63 -30 33 -40 61
-19 47 19 -11 27 17 13 45 -8 14 -14 32 -14 39 0 7 -6 15 -14 18 -8 3 -13 11
-10 19 3 7 -2 20 -11 29 -9 9 -13 20 -10 26 3 5 -3 10 -14 10 -22 0 -72 61
-54 67 5 2 8 14 6 27 -3 13 3 35 12 49 12 18 13 27 4 32 -8 6 -8 9 1 15 13 8
5 30 -10 30 -9 0 -23 -54 -25 -95 -2 -52 -65 -117 -65 -67 0 10 -7 27 -15 38
-16 22 -20 74 -5 74 6 0 10 9 10 19 0 11 5 23 10 26 6 3 10 15 10 25 0 22 67
80 94 80 14 0 16 3 7 14 -17 21 -64 14 -102 -15 -53 -40 -63 -45 -56 -27 9 26
-32 9 -65 -26 -18 -19 -28 -24 -24 -13 3 9 1 17 -4 17 -6 0 -10 -7 -10 -15 0
-21 -20 -19 -20 3 -1 15 -2 15 -13 2 -7 -10 -26 -15 -49 -14 -23 1 -39 -4 -42
-12 -3 -8 -11 -14 -17 -14 -8 0 -8 4 1 15 11 13 8 15 -18 15 -17 0 -38 3 -48
7 -13 5 -16 3 -11 -10 4 -11 2 -14 -9 -10 -7 3 -14 9 -14 14 0 5 -4 9 -9 9 -5
0 -7 -9 -4 -20 7 -26 -1 -25 -29 4 -13 14 -30 26 -38 28 -8 2 -18 7 -22 13
-13 18 -22 -6 -10 -25 7 -12 8 -20 2 -20 -5 0 -10 4 -10 10 0 22 -45 50 -77
48 -22 -1 -40 5 -57 21 -23 22 -96 39 -96 22z m240 -141 c0 -5 -2 -10 -4 -10
-3 0 -8 5 -11 10 -3 6 -1 10 4 10 6 0 11 -4 11 -10z m380 0 c0 -5 -4 -10 -10
-10 -5 0 -10 5 -10 10 0 6 5 10 10 10 6 0 10 -4 10 -10z m-522 -205 c-15 -14
-31 -25 -35 -25 -8 1 48 50 57 50 3 0 -7 -11 -22 -25z m672 -10 c24 -29 5 -23
-25 8 -20 20 -23 27 -9 19 11 -6 27 -18 34 -27z m65 -93 c-8 -8 -25 10 -25 26
0 13 2 13 14 -4 8 -10 13 -21 11 -22z m-805 8 c0 -5 -4 -10 -10 -10 -5 0 -10
5 -10 10 0 6 5 10 10 10 6 0 10 -4 10 -10z m271 -50 c10 0 19 5 19 10 0 6 5
10 12 10 6 0 8 -3 5 -7 -4 -3 1 -11 10 -18 14 -11 15 -15 1 -42 -8 -17 -14
-42 -12 -56 2 -17 -2 -24 -10 -21 -23 9 -49 67 -51 113 -1 25 0 38 2 29 3 -10
13 -18 24 -18z m235 15 c20 20 41 20 24 0 -12 -14 -7 -20 14 -16 5 1 4 -5 -3
-13 -7 -8 -11 -20 -10 -28 3 -19 -12 -51 -34 -70 -25 -22 -38 -23 -31 -3 4 8
11 15 18 15 7 0 8 3 0 8 -5 4 -16 22 -23 40 -12 27 -12 37 -1 58 12 21 15 22
22 9 8 -14 11 -14 24 0z m339 -26 c9 -16 13 -29 9 -29 -10 0 -43 44 -44 58 0
20 18 5 35 -29z m-872 24 c2 -5 -7 -19 -20 -32 -25 -26 -31 -14 -11 19 13 21
24 25 31 13z m227 -43 c10 0 21 -3 23 -7 3 -5 -12 -8 -33 -8 -34 -1 -36 1 -26
17 6 10 12 14 14 8 2 -5 12 -10 22 -10z m424 9 c-2 -4 4 -13 13 -19 15 -10 14
-10 -7 -5 -34 9 -42 9 -65 0 -16 -7 -15 -4 5 13 23 19 64 27 54 11z m-724 -3
c0 -2 -8 -10 -17 -17 -16 -13 -17 -12 -4 4 13 16 21 21 21 13z m24 -50 c-3 -9
-10 -13 -16 -10 -5 3 -4 12 3 20 15 18 22 13 13 -10z m944 12 c15 -15 16 -38
1 -38 -5 0 -7 5 -3 12 4 6 -1 17 -11 25 -11 7 -14 13 -9 13 6 0 15 -5 22 -12z
m-262 -27 c-9 -13 -43 -15 -50 -2 -4 5 3 7 14 4 15 -4 20 0 20 13 0 13 3 15
11 7 6 -6 8 -16 5 -22z m-416 8 c0 -7 9 -9 21 -6 15 4 19 3 12 -4 -6 -6 -19
-9 -29 -7 -19 3 -32 28 -15 28 6 0 11 -5 11 -11z m-29 -23 c10 -13 34 -27 52
-30 29 -5 33 -10 33 -36 0 -19 -5 -30 -13 -30 -8 0 -25 -7 -38 -16 -14 -9 -25
-12 -25 -6 0 6 5 12 12 14 9 3 9 6 -1 12 -8 5 -14 1 -18 -12 -3 -15 -12 -20
-30 -19 -18 1 -27 -4 -29 -17 -2 -16 2 -18 34 -11 20 4 48 8 62 8 14 1 29 6
33 12 6 7 10 6 14 -2 8 -22 21 -14 28 17 4 17 11 30 16 30 5 0 9 7 9 16 0 10
4 12 13 7 6 -4 20 -6 30 -5 14 3 17 -4 16 -35 0 -21 -3 -33 -5 -26 -3 7 -12 9
-20 6 -22 -8 -6 -22 21 -17 28 5 32 -3 9 -20 -16 -12 -39 -94 -29 -104 9 -10
134 -11 140 -2 3 5 1 11 -5 15 -5 3 -10 24 -10 45 0 31 -4 40 -22 46 -19 6
-19 7 -4 16 9 5 14 14 11 19 -4 5 -10 7 -14 5 -4 -3 -8 7 -8 22 0 25 4 28 34
29 25 0 33 -4 33 -17 0 -9 9 -29 20 -43 11 -14 20 -31 20 -39 0 -11 2 -11 9 0
4 8 12 14 17 14 5 0 8 4 6 9 -1 5 10 7 25 4 92 -19 93 -19 93 4 0 20 -3 22
-43 16 -33 -5 -46 -3 -56 9 -7 9 -17 13 -22 10 -11 -6 -28 36 -22 53 2 6 15
14 28 17 13 3 37 18 54 32 l31 25 23 -24 c14 -13 30 -34 37 -47 8 -15 15 -19
19 -11 5 8 15 6 33 -9 15 -11 30 -20 35 -20 13 0 31 -35 39 -76 3 -22 10 -46
14 -54 5 -9 -3 -30 -22 -57 -20 -30 -29 -54 -27 -76 3 -39 -9 -79 -22 -72 -5
4 -9 -1 -9 -10 0 -17 -17 -50 -40 -76 -8 -10 -24 -35 -35 -56 -21 -41 -35 -54
-46 -47 -7 4 -22 -29 -24 -49 0 -10 -76 -38 -86 -32 -4 3 -18 -4 -32 -15 -14
-11 -32 -20 -41 -20 -9 0 -16 -4 -16 -10 0 -22 -81 -9 -157 24 -43 19 -89 37
-103 41 -14 3 -33 19 -42 35 -9 17 -24 30 -33 30 -8 0 -15 9 -15 20 0 11 -4
20 -10 20 -5 0 -10 8 -10 17 0 10 -10 27 -22 38 -28 24 -48 59 -48 80 0 9 -4
14 -9 10 -13 -7 -25 32 -22 76 1 23 -6 45 -19 61 -13 18 -20 40 -19 70 0 46
19 111 32 109 4 -1 18 11 31 25 12 15 32 28 43 29 11 0 35 18 53 38 17 20 34
37 37 37 3 0 14 -11 24 -24z m-281 -40 c0 -2 -7 -9 -15 -16 -13 -11 -14 -10
-9 4 5 14 24 23 24 12z m-10 -51 c-10 -12 -10 -15 0 -15 7 0 19 8 27 18 9 10
12 11 7 2 -4 -8 -14 -23 -22 -32 -7 -9 -11 -22 -7 -27 3 -7 -3 -11 -16 -11
-16 0 -19 3 -12 13 6 6 9 21 7 31 -3 23 3 36 18 36 7 0 6 -6 -2 -15z m1060 0
c7 -8 8 -15 2 -15 -5 0 -15 7 -22 15 -7 8 -8 15 -2 15 5 0 15 -7 22 -15z m-10
-36 c0 -6 -4 -7 -10 -4 -5 3 -10 11 -10 16 0 6 5 7 10 4 6 -3 10 -11 10 -16z
m-1070 -391 c0 -4 -4 -8 -9 -8 -6 0 -12 4 -15 8 -3 5 1 9 9 9 8 0 15 -4 15 -9z
m31 -61 c-8 -8 -11 -7 -11 4 0 20 13 34 18 19 3 -7 -1 -17 -7 -23z"/>
<path d="M1390 1385 c0 -8 2 -15 4 -15 2 0 6 7 10 15 3 8 1 15 -4 15 -6 0 -10
-7 -10 -15z"/>
<path d="M797 1351 c-2 -10 -1 -24 3 -30 4 -7 7 1 8 18 1 35 -3 40 -11 12z"/>
<path d="M1341 1346 c-9 -10 -8 -15 3 -19 10 -4 13 -1 10 8 -3 7 2 15 13 18
14 4 15 5 2 6 -9 0 -22 -5 -28 -13z"/>
<path d="M1450 1349 c0 -5 5 -7 10 -4 6 3 10 8 10 11 0 2 -4 4 -10 4 -5 0 -10
-5 -10 -11z"/>
<path d="M1093 1131 c-62 -16 -73 -38 -52 -99 9 -26 19 -34 64 -47 48 -14 128
-21 97 -8 -10 4 -10 9 3 23 26 29 31 92 8 112 -23 20 -78 29 -120 19z"/>
<path d="M1130 956 c0 -2 7 -6 15 -10 8 -3 15 -1 15 4 0 6 -7 10 -15 10 -8 0
-15 -2 -15 -4z"/>
<path d="M704 1995 c8 -8 20 -15 27 -15 7 0 4 6 -7 15 -25 19 -40 19 -20 0z"/>
<path d="M641 1953 c0 -36 3 -43 9 -28 12 28 12 75 0 75 -5 0 -10 -21 -9 -47z"/>
<path d="M1606 1953 c9 -52 14 -54 14 -5 0 23 -5 42 -10 42 -7 0 -8 -14 -4
-37z"/>
<path d="M698 1943 c7 -3 16 -2 19 1 4 3 -2 6 -13 5 -11 0 -14 -3 -6 -6z"/>
<path d="M1548 1943 c7 -3 16 -2 19 1 4 3 -2 6 -13 5 -11 0 -14 -3 -6 -6z"/>
<path d="M713 1890 c3 -11 1 -23 -4 -26 -13 -8 9 -44 26 -44 19 0 19 48 1 73
-18 23 -30 22 -23 -3z"/>
<path d="M1635 1680 c-3 -5 -1 -10 4 -10 6 0 11 5 11 10 0 6 -2 10 -4 10 -3 0
-8 -4 -11 -10z"/>
<path d="M1650 1476 c0 -2 7 -7 16 -10 8 -3 12 -2 9 4 -6 10 -25 14 -25 6z"/>
<path d="M553 1134 c-9 -24 19 -37 34 -17 10 13 10 18 0 25 -18 12 -27 10 -34
-8z"/>
<path d="M1674 1139 c-3 -6 -2 -15 4 -21 13 -13 32 -2 32 18 0 16 -26 19 -36
3z"/>
<path d="M751 593 c19 -23 36 -39 38 -37 3 3 -12 21 -34 42 l-38 37 34 -42z"/>
</g>
</svg>
